<?xml version="1.0" encoding="utf-8"?>
<!-- Generator: Adobe Illustrator 24.3.0, SVG Export Plug-In . SVG Version: 6.00 Build 0)  -->
<svg version="1.1" id="Your_Icons" xmlns="http://www.w3.org/2000/svg" xmlns:xlink="http://www.w3.org/1999/xlink" x="0px" y="0px"
	 viewBox="0 0 46.9 33.5" style="enable-background:new 0 0 46.9 33.5;" xml:space="preserve">
<style type="text/css">
	.st0{fill:#F3722C;}
	.st1{fill:none;}
	.st2{fill:#F9C74F;}
	.st3{font-family:'MyriadPro-Bold';}
	.st4{font-size:6px;}
	.st5{font-family:'AgencyFB-Reg';}
	.st6{font-size:2px;}
</style>
<path class="st0" d="M42,11.1L40.8,9c-0.7-1.3-2-2.1-3.5-2.1h-9.2l0,0c0-2.4-1.9-4.4-4.2-4.4H7.1c-2.3,0-4.2,2-4.2,4.3v16.1
	c0,2.4,1.9,4.3,4.2,4.3h0.1c0.6,2.9,3.4,4.8,6.2,4.2c2.1-0.4,3.7-2.1,4.1-4.2h12.8c0.6,2.9,3.4,4.8,6.2,4.2c2.1-0.4,3.7-2.1,4.1-4.2
	h0.3c2.2,0,4-1.8,4-4.1v-5.6c0-0.7-0.2-1.4-0.5-2L42,11.1z M40.7,13.3l1.2,2.1l0.6,1.1h-7c-0.6,0-1.1-0.5-1.1-1.1v-1.1
	c0-0.6,0.5-1.1,1.1-1.1h5.2V13.3z M12.4,29.4c-1.5,0-2.8-1.1-3.1-2.6c0-0.2-0.1-0.4-0.1-0.6c0-1.8,1.4-3.2,3.2-3.2s3.2,1.4,3.2,3.2
	c0,0.2,0,0.4-0.1,0.6C15.2,28.2,13.9,29.3,12.4,29.4z M17.5,25.1L17.5,25.1L17.5,25.1c-0.1-0.4-0.1-0.7-0.3-0.9L17,23.9
	c-0.1-0.2-0.2-0.4-0.3-0.5l-0.3-0.3c-0.1-0.1-0.2-0.3-0.3-0.4c-0.1-0.1-0.2-0.2-0.3-0.3L15.4,22c-0.1-0.1-0.2-0.2-0.4-0.2l-0.5-0.3
	l-0.4-0.2c-0.2-0.1-0.4-0.1-0.6-0.2L13.2,21c-0.7-0.1-1.3-0.1-2,0l-0.3,0.1c-0.2,0.1-0.4,0.1-0.6,0.2l-0.4,0.2l-0.5,0.3
	C9.3,21.9,9.1,22,9,22l-0.4,0.3c-0.1,0.1-0.2,0.2-0.3,0.3C8.2,22.7,8.1,22.9,8,23s-0.2,0.2-0.3,0.4c-0.1,0.2-0.2,0.3-0.3,0.5
	c0,0.1-0.1,0.2-0.2,0.3C7.1,24.5,7,24.8,6.9,25v0.1h0.2c-1.2,0-2.1-1-2.1-2.1V6.8c0-1.2,0.9-2.1,2.1-2.1h16.8c1.2,0,2.1,1,2.1,2.1
	v9.7H10.3c-0.6,0-1.1,0.5-1.1,1.1s0.5,1.1,1.1,1.1h15.8v6.4H17.5z M35.5,29.4c-1.5,0-2.8-1.1-3.1-2.6c0-0.2-0.1-0.4-0.1-0.6
	c0-1.8,1.4-3.2,3.2-3.2c1.7,0,3.2,1.4,3.2,3.2c0,0.2,0,0.4-0.1,0.6C38.3,28.2,37,29.3,35.5,29.4z M42.8,23.1c0,1.1-0.9,1.9-1.9,2
	h-0.3V25c-0.1-0.3-0.1-0.6-0.3-0.8l-0.2-0.3c-0.1-0.2-0.2-0.4-0.3-0.5s-0.2-0.2-0.3-0.4c-0.1-0.1-0.2-0.3-0.3-0.4s-0.2-0.2-0.3-0.3
	L38.5,22c-0.1-0.1-0.2-0.2-0.4-0.2l-0.5-0.3l-0.4-0.2c-0.2-0.1-0.4-0.1-0.6-0.2L36.3,21c-0.7-0.1-1.3-0.1-2,0L34,21.1
	c-0.2,0.1-0.4,0.1-0.6,0.2L33,21.5l-0.5,0.3c-0.1,0.1-0.3,0.2-0.4,0.2l-0.2,0.2c-0.1,0.1-0.2,0.2-0.3,0.3c-0.1,0.1-0.2,0.3-0.3,0.4
	L31,23.3c-0.1,0.2-0.2,0.3-0.3,0.5l-0.2,0.3c-0.1,0.3-0.2,0.6-0.3,0.8V25H28V9h9.2c0.7,0,1.3,0.4,1.7,1l0.6,1.1h-4.1
	c-1.7,0-3.2,1.4-3.2,3.2v1.1c0,1.8,1.4,3.2,3.2,3.2h7.4C42.8,18.6,42.8,23.1,42.8,23.1z"/>
<rect x="5" y="5.8" class="st1" width="18.1" height="10.7"/>
<text transform="matrix(1 0 0 1 5.2671 10.0096)" class="st2 st3 st4">PACOC</text>
<text transform="matrix(1 0 0 1 5.9671 13.0096)" class="st2 st5 st6">Puente Alto Chamber of </text>
<text transform="matrix(1 0 0 1 10.9671 15.0096)" class="st2 st5 st6">Commerce</text>
</svg>
