<svg xmlns="http://www.w3.org/2000/svg" viewBox="0 0 340.6 372.49"><defs><style>.cls-1{fill:#231815;}.cls-2{fill:#fff;}.cls-3{fill:#2ea7e0;}.cls-4{fill:#f8b62d;}</style></defs><g id="Layer_2" data-name="Layer 2"><g id="Layer_1-2" data-name="Layer 1"><g id="图层_1" data-name="图层 1"><path class="cls-1" d="M173.26,40.91V7.25c0-9.65-15-9.67-15,0V40.9C158.26,50.57,173.26,50.58,173.26,40.91Z"/><path class="cls-1" d="M96.85,61.44c4.83,8.36,17.79.81,13-7.57L93,24.72c-4.83-8.36-17.79-.81-13,7.57Zm6.48-3.79L86.5,28.5Z"/><path class="cls-1" d="M7.25,173.25H40.9c9.65,0,9.67-15,0-15H7.25C-2.41,158.25-2.42,173.25,7.25,173.25Z"/><path class="cls-1" d="M234.66,61.44l16.83-29.19c4.84-8.38-8.12-15.95-13-7.57L221.66,53.83C216.87,62.25,229.83,69.8,234.66,61.44ZM245,28.51,228.19,57.65Z"/><path class="cls-2" d="M256.27,311.48H238.91v-7.34l3-1.73c.77.4,1.51.79,2.18,1.18l8.45,4.91a7.24,7.24,0,0,0,3.73,1.07Z"/><path class="cls-2" d="M170.24,308.51l8.44-4.91c.66-.38,1.41-.77,2.19-1.18l3.19,1.85v7.22H166.5v-1.91A7.47,7.47,0,0,0,170.24,308.51Z"/><path class="cls-2" d="M223.91,310v1.54H199.06v-7.35l4.83-2.78,2.58-1.48,4.92-2.84.1-.06,4.92,2.84,2.48,1.43,5,2.89Z"/><path class="cls-2" d="M289.73,216.25c22.53,4.89,38.5,25.75,35.61,49-2.75,22.08-22,38.41-44,38.7-4.78.07-7.2,3.78-7.24,7.5H256.27v-1.91c6.57,0,10.91-9.93,3.84-14L257,293.72l4.85-2.8c8.35-4.82.81-17.79-7.57-12.95l-4.78,2.75v-3.59c0-9.65-15-9.68-15,0v9.76c0,.77,0,1.62-.07,2.52l-3,1.73-7-4.06c-1.58-.91-3.49-2.28-5.49-3.5v-3.13c.76-.48,1.49-.95,2.18-1.34l8.47-4.86c8.37-4.8.83-17.77-7.57-13l-3.08,1.77v-5.32a7,7,0,0,0-6.54-7.19A7.13,7.13,0,0,0,204,256.2a7.27,7.27,0,0,0-.12,1.54v5.32l-3.09-1.77c-8.39-4.81-15.95,8.15-7.57,13l8.47,4.86c.69.4,1.42.86,2.19,1.34v3.28c-1.78,1.11-3.46,2.3-4.87,3.11l-7.57,4.41-3.1-1.8c0-.87-.07-1.73-.07-2.51v-9.77c0-9.65-15-9.67-15,0v3.6L168.52,278c-8.38-4.84-15.94,8.12-7.57,12.95l4.84,2.8-3.15,1.82c-7.06,4.11-2.74,14,3.84,14v1.91H148c0-3.72-2.44-7.44-7.24-7.5-24.5-.27-46.36-16.59-52.84-40.4a54.66,54.66,0,0,1,3-36.6,55.26,55.26,0,0,1,8.47-13.43,53.79,53.79,0,0,1,14.15-11.78c13.58-7.83,29.54-9.09,44.43-4.5a7.71,7.71,0,0,0,8.47-3.44c14.64-21.54,41.42-33.14,67.15-28.1a66.89,66.89,0,0,1,13.82,4.3c.87.38,1.73.78,2.57,1.19s1.94,1,2.89,1.48A67.07,67.07,0,0,1,284.51,211,7.52,7.52,0,0,0,289.73,216.25Z"/><path class="cls-1" d="M324.26,158.25c9.67,0,9.65,15,0,15H290.61c-9.67,0-9.65-15,0-15Z"/><path class="cls-1" d="M262.4,169.66A73.79,73.79,0,0,1,291.72,209a51.74,51.74,0,0,1-10.34,102.45h-7.19c0-3.72,2.46-7.43,7.24-7.5,22-.29,41.21-16.6,44-38.7,2.89-23.28-13.08-44.14-35.61-49a7.49,7.49,0,0,1-5.24-5.24,67,67,0,0,0-22.91-32.59C262,175.53,262.26,172.61,262.4,169.66Z"/><path class="cls-1" d="M299.24,80c8.38-4.84,15.93,8.13,7.57,13l-29.14,16.82c-8.39,4.84-15.93-8.12-7.57-12.95Z"/><path class="cls-1" d="M299,207l-5.24-5.24c1.27.27,2.5.6,3.73.95C298,204.17,298.49,205.58,299,207Z"/><path class="cls-1" d="M262.51,166.35v-1.09c0-1.49-.09-3-.17-4.46a83.6,83.6,0,0,1,35.1,41.95c-1.23-.36-2.46-.68-3.73-1L299,207c-.46-1.45-1-2.87-1.51-4.29,27.43,7.88,46.27,35.15,42.73,63.9A59.88,59.88,0,0,1,281.38,319c-4.88.07-7.29-3.71-7.24-7.5h7.24A51.75,51.75,0,0,0,291.72,209a73.87,73.87,0,0,0-29.32-39.37C262.46,168.55,262.5,167.46,262.51,166.35Z"/><path class="cls-1" d="M261.75,169.25a7.25,7.25,0,0,0,.76-2.89c0,1.11-.05,2.22-.11,3.31Z"/><path class="cls-3" d="M254.24,278c8.38-4.84,15.92,8.13,7.57,12.95l-4.85,2.8,3.15,1.82c7.07,4.11,2.73,14-3.84,14a7.44,7.44,0,0,1-3.73-1.07l-8.45-4.91c-.67-.4-1.41-.78-2.18-1.18l-3,1.73v7.34h-15v-7.32q-2.52-1.44-5-2.89l-2.48-1.43L211.51,297l-.1.06-4.92,2.84-2.58,1.48-4.83,2.78v7.34h-15v-7.23l-3.19-1.86c-.78.41-1.53.8-2.19,1.18l-8.44,4.91a7.28,7.28,0,0,1-3.74,1.07c-6.58,0-10.9-9.92-3.84-14l3.15-1.82L161,290.94c-8.37-4.83-.81-17.8,7.57-13l4.77,2.77v-3.61c0-9.67,15-9.64,15,0v9.77c0,.78,0,1.64.07,2.51l3.1,1.8,7.56-4.36c1.41-.82,3.09-2,4.87-3.1v-3.28c-.77-.48-1.5-1-2.19-1.34l-8.55-4.89c-8.38-4.8-.82-17.77,7.57-13l3.09,1.77v-5.32a7.12,7.12,0,0,1,6.92-7.31,8,8,0,0,1,1.54.12,7,7,0,0,1,6.54,7.19v5.32l3.08-1.77c8.4-4.81,15.94,8.15,7.57,13L221,279.11c-.69.4-1.42.86-2.18,1.34v3.13c2,1.22,3.91,2.59,5.49,3.5l7,4.06,3-1.73c0-.9.07-1.76.07-2.52v-9.76c0-9.68,15-9.65,15,0v3.59Z"/><path class="cls-3" d="M261.61,331.7c8.37,4.83.8,17.8-7.57,13l-4.58-2.65v3.61c0,9.67-15,9.64-15,0v-9.77c0-.78,0-1.64-.07-2.51l-3.1-1.8-7.36,4.25c-1.47.85-3.22,2.09-5.06,3.23v3.19c.76.48,1.5.95,2.18,1.33l8.47,4.87c8.38,4.8.82,17.77-7.57,13l-3.08-1.77v5.61c0,9.67-15,9.64-15,0V359.7l-3.09,1.77c-8.39,4.81-15.94-8.15-7.57-13l8.47-4.87c.69-.39,1.42-.85,2.19-1.34V339c-1.94-1.2-3.77-2.5-5.3-3.4l-7-4-3.19,1.84c0,.9-.08,1.75-.08,2.51v9.77c0,9.67-15,9.65-15,0V342l-4.57,2.65c-8.39,4.84-15.93-8.13-7.58-13L165.8,329l-3.14-1.75c-7.07-4.11-2.73-14,3.84-14a7.28,7.28,0,0,1,3.74,1.07l8.44,4.91c.67.39,1.42.78,2.18,1.18l3.2-1.86v-7h15v7l4.83,2.7,2.68,1.54,4.82,2.79.1.06,4.82-2.79,2.58-1.49,4.92-2.84.1-.06v-7h15v7.12l3,1.73c.78-.41,1.53-.8,2.18-1.18l8.45-4.91a7.28,7.28,0,0,1,3.74-1.07c6.57,0,10.89,9.92,3.83,14L257,329Z"/><path class="cls-1" d="M261.75,169.25c-1.63,3.22-5.6,4.39-8.93,3.47-1-.52-1.91-1-2.89-1.47a7,7,0,0,1-2.41-5.47,7.53,7.53,0,0,1,.84-3.5A73.39,73.39,0,0,1,261.75,169.25Z"/><path class="cls-1" d="M248.36,162.25c3.1-5.84,13.76-4.84,14.15,3v1.08a7.25,7.25,0,0,1-.76,2.89A72.77,72.77,0,0,0,248.36,162.25Z"/><path class="cls-1" d="M252.82,172.71c3.33.91,7.3-.25,8.93-3.48l.65.43c-.14,3-.41,5.88-.82,8.77A67.21,67.21,0,0,0,252.82,172.71Z"/><path class="cls-1" d="M247.39,161.89a82,82,0,0,0-.89-8.29,77.71,77.71,0,0,1,15.84,7.2c.08,1.48.15,3,.17,4.46-.39-7.83-11-8.83-14.15-3Z"/><path class="cls-1" d="M248.36,162.25a7.47,7.47,0,0,0-.84,3.5c0-1.31-.06-2.59-.13-3.89Z"/><path class="cls-1" d="M247.52,165.77a7,7,0,0,0,2.41,5.46c-.84-.41-1.7-.81-2.57-1.19C247.45,168.63,247.51,167.25,247.52,165.77Z"/><path class="cls-1" d="M221.3,157.13a73.4,73.4,0,0,1,26.09,4.76c.07,1.28.12,2.58.13,3.88s-.07,2.86-.16,4.27a66.89,66.89,0,0,0-13.82-4.3c-25.73-5-52.51,6.56-67.15,28.09-1.84,2.71-5.13,4.47-8.47,3.45-14.89-4.59-30.85-3.33-44.43,4.5a53.94,53.94,0,0,0-14.15,11.77A70.75,70.75,0,0,1,95.05,207a62.21,62.21,0,0,1,58-18.76,65.41,65.41,0,0,1,6.87,1.79A73.64,73.64,0,0,1,221.3,157.13Z"/><path class="cls-1" d="M156.93,181.5A82.3,82.3,0,0,1,236.19,151a80.05,80.05,0,0,1,10.36,2.59,82.65,82.65,0,0,1,.89,8.29A73.77,73.77,0,0,0,160,190a65.41,65.41,0,0,0-6.87-1.79l.4-2L162,182.8C160.26,182.3,158.6,181.88,156.93,181.5Z"/><path class="cls-4" d="M95.82,123.38c17.54-28.95,52.48-44.6,85.76-37.86A82.65,82.65,0,0,1,246.5,153.6a77.78,77.78,0,0,0-10.31-2.6A82.31,82.31,0,0,0,157,181.5,71,71,0,0,0,91.48,200,83,83,0,0,1,95.82,123.38Z"/><path class="cls-1" d="M161.91,182.82l-8.47,3.43c1.11-1.64,2.28-3.23,3.49-4.78C158.6,181.88,160.26,182.3,161.91,182.82Z"/><path class="cls-1" d="M91.43,200a71,71,0,0,1,65.5-18.5c-1.21,1.53-2.38,3.13-3.49,4.77l-.4,2A62.17,62.17,0,0,0,95,207,79,79,0,0,1,91.43,200Z"/><path class="cls-1" d="M78.5,249.25a62.23,62.23,0,0,0,62.23,62.23H148c0,3.78-2.38,7.56-7.24,7.5a70.89,70.89,0,0,1-47.42-18.62C70,278.94,64.49,243.22,79.65,215.57c.5-.92,1-1.82,1.57-2.7.53.95,1.08,1.91,1.65,2.85.91,1.51,1.87,3,2.86,4.41A62,62,0,0,0,78.5,249.25Z"/><path class="cls-1" d="M95.05,207a70.75,70.75,0,0,0,4.29,6.54A55.65,55.65,0,0,0,90.87,227c-1.81-2.19-3.52-4.48-5.14-6.84A61.7,61.7,0,0,1,95.05,207Z"/><path class="cls-1" d="M91.43,200a67.83,67.83,0,0,0-10.24,12.89c-19.27-34.5-15-78.17,10-108.76,25.37-31,69.58-43.24,107.27-29.42a97.93,97.93,0,0,1,63.86,86.09,77.71,77.71,0,0,0-15.84-7.2,82.65,82.65,0,0,0-64.92-68.08c-33.28-6.74-68.22,8.91-85.76,37.86A83,83,0,0,0,91.43,200Z"/><path class="cls-1" d="M81.19,212.89A67.67,67.67,0,0,1,91.4,200Q93,203.58,95,207a61.2,61.2,0,0,0-9.32,13.13c-1-1.44-2-2.9-2.86-4.41C82.3,214.79,81.75,213.83,81.19,212.89Z"/><path class="cls-1" d="M148,311.48h-7.24a62.23,62.23,0,0,1-55-91.34c1.62,2.36,3.33,4.65,5.14,6.84a54.67,54.67,0,0,0-3,36.6c6.48,23.81,28.34,40.14,52.84,40.4C145.53,304,147.94,307.76,148,311.48Z"/><path class="cls-1" d="M61.41,96.86c8.37,4.83.8,17.8-7.57,13L24.69,93c-8.36-4.84-.8-17.8,7.57-13Z"/><path class="cls-1" d="M53.84,221.73c8.38-4.84,15.93,8.12,7.57,13L32.26,251.5c-8.38,4.85-15.92-8.12-7.57-12.95Z"/></g></g></g></svg>