<?xml version="1.0" encoding="utf-8"?>
<!-- Generator: Adobe Illustrator 24.3.0, SVG Export Plug-In . SVG Version: 6.00 Build 0)  -->
<svg version="1.1" id="Your_Icons" xmlns="http://www.w3.org/2000/svg" xmlns:xlink="http://www.w3.org/1999/xlink" x="0px" y="0px"
	 viewBox="0 0 52 45.6" style="enable-background:new 0 0 52 45.6;" xml:space="preserve">
<style type="text/css">
	.st0{fill:#F3722C;}
	.st1{fill:none;}
</style>
<path class="st0" d="M47,13.8l-1.4-3.2c-0.8-1.9-2.3-3.2-4.2-3.2H30.5l0,0c0-3.7-2.2-6.8-5-6.8h-20c-2.8,0-5,3-5,6.6V32
	c0,3.7,2.2,6.6,5,6.6h0.1c0.7,4.4,4.1,7.3,7.4,6.5c2.6-0.6,4.4-3.2,4.9-6.5h15.2c0.7,4.4,4.1,7.3,7.4,6.5c2.6-0.6,4.4-3.2,4.9-6.5
	h0.3c2.7,0,4.8-2.8,4.8-6.3v-8.5c0-1.1-0.2-2.2-0.6-3L47,13.8z M45.5,17.3l1.4,3.2l0.7,1.7h-8.4c-0.7,0-1.3-0.8-1.3-1.7v-1.7
	c0-1,0.6-1.7,1.3-1.7h6.2v0.1H45.5z M11.8,42c-1.7,0-3.4-1.7-3.7-4c0-0.3-0.1-0.6-0.1-1c0-2.8,1.6-5,3.8-5s3.8,2.2,3.8,5
	c0,0.3,0,0.6-0.1,1C15.1,40.2,13.6,41.8,11.8,42z M17.8,35.3L17.8,35.3L17.8,35.3c-0.1-0.6-0.1-1.1-0.3-1.4l-0.2-0.4
	c-0.1-0.3-0.2-0.6-0.3-0.8l-0.3-0.4c-0.1-0.1-0.2-0.4-0.3-0.6s-0.2-0.3-0.3-0.4l-0.5-0.6c-0.1-0.1-0.2-0.3-0.5-0.3l-0.6-0.7
	l-0.5-0.3c-0.2-0.1-0.5-0.1-0.7-0.3l-0.3-0.1c-0.8-0.1-1.5-0.1-2.3,0l-0.3,0.1c-0.2,0.1-0.5,0.1-0.7,0.3l-0.6,0.3l-0.7,0.4
	c-0.1,0.1-0.3,0.3-0.5,0.3l-0.5,0.4c-0.1,0.3-0.2,0.4-0.3,0.6c-0.1,0.1-0.2,0.4-0.3,0.6c-0.1,0.1-0.2,0.3-0.3,0.6
	C6.1,32.9,6,33,5.8,33.4c0,0.1-0.1,0.3-0.2,0.4c-0.1,0.4-0.2,1-0.3,1.2v0.3h0.2c-1.4,0-2.6-1.5-2.6-3.2V7.4c0-1.8,1-3.2,2.6-3.2h20
	c1.4,0,2.6,1.5,2.6,3.2v14.9H9.3c-0.7,0-1.3,0.8-1.3,1.7c0,1,0.6,1.7,1.3,1.7h18.8v9.8H17.8z M39.3,42c-1.7,0-3.4-1.7-3.7-4
	c0-0.3-0.1-0.6-0.1-1c0-2.8,1.6-5,3.8-5c2,0,3.8,2.2,3.8,5c0,0.3,0,0.6-0.1,1C42.7,40.2,41,41.8,39.3,42z M48,32.3
	c0,1.7-1,2.9-2.2,3h-0.5v-0.1c-0.1-0.4-0.1-1-0.3-1.2l-0.2-0.4c-0.1-0.3-0.2-0.6-0.3-0.8c-0.1-0.1-0.2-0.3-0.3-0.6
	c-0.1-0.1-0.2-0.4-0.3-0.6c-0.1-0.1-0.2-0.3-0.3-0.4l-0.5-0.4c-0.1-0.1-0.2-0.3-0.5-0.3l-0.7-0.7l-0.5-0.3c-0.2-0.1-0.5-0.1-0.7-0.3
	l-0.3-0.1c-0.8-0.1-1.5-0.1-2.3,0l-0.3,0.1c-0.2,0.1-0.5,0.1-0.7,0.3l-0.6,0.3l-0.6,0.4c-0.1,0.1-0.3,0.3-0.5,0.3L35,30.8
	c-0.1,0.1-0.2,0.3-0.3,0.4c-0.1,0.1-0.2,0.4-0.3,0.6L34,32.6c-0.1,0.3-0.2,0.4-0.3,0.8l-0.2,0.4c-0.1,0.4-0.2,1-0.3,1.2v0.1h-2.7
	V10.7h10.9c0.8,0,1.5,0.6,2,1.5l0.7,1.7h-4.9c-2,0-3.8,2.2-3.8,5v1.7c0,2.8,1.6,5,3.8,5h8.8C48,25.4,48,32.3,48,32.3z"/>
<rect x="10.1" y="17.9" class="st1" width="18.1" height="10.7"/>
</svg>
