<?xml version="1.0" encoding="utf-8"?>
<!-- Generator: Adobe Illustrator 24.3.0, SVG Export Plug-In . SVG Version: 6.00 Build 0)  -->
<svg version="1.1" id="Your_Icons" xmlns="http://www.w3.org/2000/svg" xmlns:xlink="http://www.w3.org/1999/xlink" x="0px" y="0px"
	 viewBox="0 0 48 48" style="enable-background:new 0 0 48 48;" xml:space="preserve">
<style type="text/css">
	.st0{fill:#F3722C;}
	.st1{fill:none;}
	.st2{fill:#F9C74F;}
	.st3{font-family:'MyriadPro-Regular';}
	.st4{font-size:6px;}
	.st5{font-family:'AgencyFB-Reg';}
	.st6{font-size:2px;}
</style>
<path class="st0" d="M43.1,17.6l-1.2-2.1c-0.7-1.3-2-2.1-3.5-2.1h-9.2l0,0C29.2,11,27.3,9,25,9H8.2C5.9,9,4,11,4,13.3v16.1
	c0,2.4,1.9,4.3,4.2,4.3h0.1c0.6,2.9,3.4,4.8,6.2,4.2c2.1-0.4,3.7-2.1,4.1-4.2h12.8c0.6,2.9,3.4,4.8,6.2,4.2c2.1-0.4,3.7-2.1,4.1-4.2
	H42c2.2,0,4-1.8,4-4.1v-5.6c0-0.7-0.2-1.4-0.5-2L43.1,17.6z M41.8,19.8l1.2,2.1l0.6,1.1h-7c-0.6,0-1.1-0.5-1.1-1.1v-1.1
	c0-0.6,0.5-1.1,1.1-1.1H41.8z M13.5,35.9c-1.5,0-2.8-1.1-3.1-2.6c0-0.2-0.1-0.4-0.1-0.6c0-1.8,1.4-3.2,3.2-3.2s3.2,1.4,3.2,3.2
	c0,0.2,0,0.4-0.1,0.6C16.3,34.7,15,35.8,13.5,35.9z M18.6,31.6L18.6,31.6L18.6,31.6c-0.1-0.4-0.1-0.7-0.3-0.9l-0.2-0.3
	c-0.1-0.2-0.2-0.4-0.3-0.5l-0.3-0.3c-0.1-0.1-0.2-0.3-0.3-0.4c-0.1-0.1-0.2-0.2-0.3-0.3l-0.4-0.4c-0.1-0.1-0.2-0.2-0.4-0.2l-0.5-0.3
	l-0.4-0.2c-0.2-0.1-0.4-0.1-0.6-0.2l-0.3-0.1c-0.7-0.1-1.3-0.1-2,0l-0.3,0.1c-0.2,0.1-0.4,0.1-0.6,0.2l-0.4,0.2l-0.5,0.3
	c-0.1,0.1-0.3,0.2-0.4,0.2l-0.4,0.3c-0.1,0.1-0.2,0.2-0.3,0.3c-0.1,0.1-0.2,0.3-0.3,0.4c-0.1,0.1-0.2,0.2-0.3,0.4
	c-0.1,0.2-0.2,0.3-0.3,0.5c0,0.1-0.1,0.2-0.2,0.3c-0.1,0.3-0.2,0.6-0.3,0.8v0.1H8.2c-1.2,0-2.1-1-2.1-2.1V13.3
	c0-1.2,0.9-2.1,2.1-2.1H25c1.2,0,2.1,1,2.1,2.1V23H11.4c-0.6,0-1.1,0.5-1.1,1.1s0.5,1.1,1.1,1.1h15.8v6.4H18.6z M36.6,35.9
	c-1.5,0-2.8-1.1-3.1-2.6c0-0.2-0.1-0.4-0.1-0.6c0-1.8,1.4-3.2,3.2-3.2c1.7,0,3.2,1.4,3.2,3.2c0,0.2,0,0.4-0.1,0.6
	C39.4,34.7,38.1,35.8,36.6,35.9z M43.9,29.6c0,1.1-0.9,1.9-1.9,2h-0.3v-0.1c-0.1-0.3-0.1-0.6-0.3-0.8l-0.2-0.3
	c-0.1-0.2-0.2-0.4-0.3-0.5c-0.1-0.1-0.2-0.2-0.3-0.4c-0.1-0.1-0.2-0.3-0.3-0.4c-0.1-0.1-0.2-0.2-0.3-0.3l-0.4-0.3
	c-0.1-0.1-0.2-0.2-0.4-0.2l-0.5-0.3l-0.4-0.2c-0.2-0.1-0.4-0.1-0.6-0.2l-0.3-0.1c-0.7-0.1-1.3-0.1-2,0l-0.3,0.1
	c-0.2,0.1-0.4,0.1-0.6,0.2l-0.4,0.2l-0.5,0.3c-0.1,0.1-0.3,0.2-0.4,0.2L33,28.7c-0.1,0.1-0.2,0.2-0.3,0.3c-0.1,0.1-0.2,0.3-0.3,0.4
	l-0.3,0.4c-0.1,0.2-0.2,0.3-0.3,0.5l-0.2,0.3c-0.1,0.3-0.2,0.6-0.3,0.8v0.1h-2.2V15.5h9.2c0.7,0,1.3,0.4,1.7,1l0.6,1.1h-4.1
	c-1.7,0-3.2,1.4-3.2,3.2v1.1c0,1.8,1.4,3.2,3.2,3.2h7.4V29.6z"/>
<rect x="6.1" y="12.3" class="st1" width="18.1" height="10.7"/>
<text transform="matrix(1 0 0 1 6.3921 16.5096)"><tspan x="0" y="0" class="st2 st3 st4">PACOC</tspan><tspan x="0.7" y="3" class="st2 st5 st6">Puente Alto Chamber of </tspan><tspan x="5.7" y="5" class="st2 st5 st6">Commerce</tspan></text>
</svg>
